Coordinates
version=1
nRows=13
nColumns=40
inDegrees=yes

Units are S.I. units (second, meters, Newtons, ...)
If the header above contains a line with 'inDegrees', this indicates whether rotational values are in degrees (yes) or radians (no).

endheader
time	pelvis_tilt	pelvis_list	pelvis_rotation	pelvis_tx	pelvis_ty	pelvis_tz	hip_flexion_r	hip_adduction_r	hip_rotation_r	knee_angle_r	knee_angle_r_beta	ankle_angle_r	subtalar_angle_r	mtp_angle_r	hip_flexion_l	hip_adduction_l	hip_rotation_l	knee_angle_l	knee_angle_l_beta	ankle_angle_l	subtalar_angle_l	mtp_angle_l	lumbar_extension	lumbar_bending	lumbar_rotation	arm_flex_r	arm_add_r	arm_rot_r	elbow_flex_r	pro_sup_r	wrist_flex_r	wrist_dev_r	arm_flex_l	arm_add_l	arm_rot_l	elbow_flex_l	pro_sup_l	wrist_flex_l	wrist_dev_l
      4.20000000	    -35.38689792	      1.03871996	      3.15865244	      0.09055006	      0.65774181	     -1.14423439	     92.22390321	    -45.80005589	     -8.31281505	     80.78718519	      1.41000237	     17.56986878	      7.24690859	      0.00000000	     90.16285566	    -39.69632879	    -10.54384841	     73.66912740	      1.28576883	     12.67114468	     16.89089738	      0.00000000	      0.00000000	      0.00000000	      0.00000000	     44.55556773	    -15.09342433	     44.55556773	     75.03056661	     44.99928839	      0.00000000	      0.00000000	     44.55556773	    -15.09342433	     44.55556773	     75.03056661	     44.99928839	      0.00000000	      0.00000000
      4.20500000	    -35.69930179	      1.13582207	      3.20058960	      0.09011907	      0.65523926	     -1.14414970	     93.10703595	    -45.87877693	     -7.78952582	     81.17244942	      1.41672650	     17.56986495	      7.35096749	      0.00000000	     90.71898275	    -39.73581067	    -10.48787137	     74.00944387	      1.29170847	     12.72616309	     16.89266694	      0.00000000	      0.00000000	      0.00000000	      0.00000000	     44.56321221	    -15.09088278	     44.56321221	     75.02909928	     44.99936042	      0.00000000	      0.00000000	     44.56321221	    -15.09088278	     44.56321221	     75.02909928	     44.99936042	      0.00000000	      0.00000000
      4.21000000	    -35.59356672	      1.15393559	      3.03218624	      0.09014137	      0.65391794	     -1.14369496	     93.25148110	    -45.74634056	     -7.61296841	     81.45197823	      1.42160520	     17.68982784	      7.30342854	      0.00000000	     90.83380211	    -40.09556873	    -10.42653720	     74.30970819	      1.29694907	     12.84157134	     17.21344960	      0.00000000	      0.00000000	      0.00000000	      0.00000000	     44.57019783	    -15.08859209	     44.57019783	     75.02781634	     44.99941825	      0.00000000	      0.00000000	     44.57019783	    -15.08859209	     44.57019783	     75.02781634	     44.99941825	      0.00000000	      0.00000000
      4.21500000	    -35.93446488	      1.20616374	      3.25542001	      0.08968436	      0.65134019	     -1.14403259	     94.14310084	    -46.04804235	     -7.14636419	     81.86007571	      1.42872785	     17.73897641	      7.39267513	      0.00000000	     91.47602562	    -39.88499978	    -10.26900461	     74.64025167	      1.30271815	     12.84355093	     16.99253318	      0.00000000	      0.00000000	      0.00000000	      0.00000000	     44.57710543	    -15.08633964	     44.57710543	     75.02656739	     44.99947397	      0.00000000	      0.00000000	     44.57710543	    -15.08633964	     44.57710543	     75.02656739	     44.99947397	      0.00000000	      0.00000000
      4.22000000	    -35.99850549	      1.17537300	      3.26392387	      0.08952217	      0.64958039	     -1.14400350	     94.48986410	    -46.11232273	     -6.96317978	     82.16961385	      1.43413031	     17.82706361	      7.41301456	      0.00000000	     91.85632560	    -39.98755410	    -10.07789389	     74.95120909	      1.30814538	     12.91860422	     17.08882909	      0.00000000	      0.00000000	      0.00000000	      0.00000000	     44.58266823	    -15.08455524	     44.58266823	     75.02561375	     44.99951222	      0.00000000	      0.00000000	     44.58266823	    -15.08455524	     44.58266823	     75.02561375	     44.99951222	      0.00000000	      0.00000000
      4.22500000	    -35.91751814	      1.23317557	      3.15067380	      0.08957401	      0.64824911	     -1.14360908	     94.71574670	    -46.03640834	     -6.71346982	     82.45703030	      1.43914667	     17.90887248	      7.42619595	      0.00000000	     91.94661235	    -40.28823083	    -10.09950680	     75.24361745	      1.31324887	     13.05251195	     17.38637334	      0.00000000	      0.00000000	      0.00000000	      0.00000000	     44.59015976	    -15.08215642	     44.59015976	     75.02433490	     44.99956347	      0.00000000	      0.00000000	     44.59015976	    -15.08215642	     44.59015976	     75.02433490	     44.99956347	      0.00000000	      0.00000000
      4.23000000	    -36.07980117	      1.23074520	      3.29281003	      0.08932593	      0.64622124	     -1.14381612	     95.25811476	    -46.25832494	     -6.42437226	     82.80546008	      1.44522792	     18.04657265	      7.52966913	      0.00000000	     92.40712639	    -40.19166046	     -9.90433861	     75.53917113	      1.31840725	     13.08228368	     17.26652314	      0.00000000	      0.00000000	      0.00000000	      0.00000000	     44.59791315	    -15.07970290	     44.59791315	     75.02305990	     44.99961118	      0.00000000	      0.00000000	     44.59791315	    -15.07970290	     44.59791315	     75.02305990	     44.99961118	      0.00000000	      0.00000000
      4.23500000	    -36.02221570	      1.25218819	      3.16545175	      0.08936209	      0.64487172	     -1.14344492	     95.45773715	    -46.16574531	     -6.24867940	     83.06593178	      1.44977401	     18.08687244	      7.50790334	      0.00000000	     92.55930373	    -40.49607322	     -9.84365999	     75.82795559	      1.32344749	     13.21583244	     17.61001724	      0.00000000	      0.00000000	      0.00000000	      0.00000000	     44.60490544	    -15.07751597	     44.60490544	     75.02195137	     44.99965012	      0.00000000	      0.00000000	     44.60490544	    -15.07751597	     44.60490544	     75.02195137	     44.99965012	      0.00000000	      0.00000000
      4.24000000	    -36.21907829	      1.22920154	      3.31559775	      0.08906431	      0.64273984	     -1.14366975	     96.03176722	    -46.37854016	     -5.96243445	     83.42383267	      1.45602055	     18.20950153	      7.55794176	      0.00000000	     93.09264864	    -40.38836686	     -9.61796263	     76.12732501	      1.32867247	     13.22062282	     17.46145358	      0.00000000	      0.00000000	      0.00000000	      0.00000000	     44.61030136	    -15.07585578	     44.61030136	     75.02113954	     44.99967600	      0.00000000	      0.00000000	     44.61030136	    -15.07585578	     44.61030136	     75.02113954	     44.99967600	      0.00000000	      0.00000000
      4.24500000	    -36.27068334	      1.23083331	      3.32788168	      0.08896512	      0.64104337	     -1.14359552	     96.39554946	    -46.44405179	     -5.73416368	     83.72995741	      1.46136344	     18.29910265	      7.60225636	      0.00000000	     93.40925337	    -40.48682550	     -9.48107457	     76.41811083	      1.33374764	     13.29435792	     17.57125924	      0.00000000	      0.00000000	      0.00000000	      0.00000000	     44.61709513	    -15.07377174	     44.61709513	     75.02012577	     44.99970806	      0.00000000	      0.00000000	     44.61709513	    -15.07377174	     44.61709513	     75.02012577	     44.99970806	      0.00000000	      0.00000000
      4.25000000	    -36.18049730	      1.25685070	      3.23729672	      0.08903748	      0.63973561	     -1.14327007	     96.56457497	    -46.40235203	     -5.55072339	     84.00977464	      1.46624717	     18.41221467	      7.64648636	      0.00000000	     93.51589978	    -40.74300049	     -9.42096557	     76.69033610	      1.33849887	     13.44017434	     17.84004935	      0.00000000	      0.00000000	      0.00000000	      0.00000000	     44.62370441	    -15.07176800	     44.62370441	     75.01917550	     44.99973613	      0.00000000	      0.00000000	     44.62370441	    -15.07176800	     44.62370441	     75.01917550	     44.99973613	      0.00000000	      0.00000000
      4.25500000	    -36.38258341	      1.28439808	      3.33441301	      0.08875720	      0.63755422	     -1.14334799	     97.21132077	    -46.54061938	     -5.17678465	     84.36281204	      1.47240884	     18.49241595	      7.65401006	      0.00000000	     94.01276908	    -40.70774051	     -9.26232515	     77.00661959	      1.34401906	     13.45577518	     17.76580383	      0.00000000	      0.00000000	      0.00000000	      0.00000000	     44.63077008	    -15.06963884	     44.63077008	     75.01817675	     44.99976525	      0.00000000	      0.00000000	     44.63077008	    -15.06963884	     44.63077008	     75.01817675	     44.99976525	      0.00000000	      0.00000000
      4.26000000	    -36.30325383	      1.33748787	      3.25374220	      0.08881011	      0.63617103	     -1.14300127	     97.44437453	    -46.50074964	     -4.92713610	     84.65538825	      1.47751525	     18.59230296	      7.69040598	      0.00000000	     94.10866378	    -40.95127597	     -9.22530304	     77.27939186	      1.34877983	     13.59736218	     18.03645426	      0.00000000	      0.00000000	      0.00000000	      0.00000000	     44.63762196	    -15.06760180	     44.63762196	     75.01724931	     44.99979008	      0.00000000	      0.00000000	     44.63762196	    -15.06760180	     44.63762196	     75.01724931	     44.99979008	      0.00000000	      0.00000000
